# xmcd CD database file
#
# Track frame offsets:
#	150
#	46265
#	69248
#	105958
#	140766
#	178036
#	210577
#	240498
#	273837
#
# Disc length: 4192 seconds
#
# Revision: 0
# Processed by: cddbd v1.5.1PL2 Copyright (c) Steve Scherf et al.
# Submitted via: CDex 1.51
#
DISCID=75105e09
DTITLE=Todd Horton - Dedication
DYEAR=2002
DGENRE=Jazz
TTITLE0=Lullabye Of The Leaves
TTITLE1=Half Nelson
TTITLE2=How Insensitive
TTITLE3=Footprints
TTITLE4=I Thought About You
TTITLE5=Tune Up
TTITLE6=Stardust
TTITLE7=Straight, No Chaser
TTITLE8=That's All
EXTD=YEAR: 2002
EXTT0=
EXTT1=
EXTT2=
EXTT3=
EXTT4=
EXTT5=
EXTT6=
EXTT7=
EXTT8=
PLAYORDER=
